1umbra-3.ufo
<glyph name="percent" format="1">
  <advance width="641"/>
  <unicode hex="0025"/>
  <outline>
    <contour>
      <point x="200" y="149" type="line"/>
      <point x="510" y="649" type="line"/>
      <point x="640" y="649" type="line"/>
      <point x="330" y="149" type="line"/>
    </contour>
    <contour>
      <point x="250" y="457" type="line"/>
      <point x="145" y="562" type="line"/>
      <point x="250" y="668" type="line"/>
      <point x="356" y="562" type="line"/>
    </contour>
    <contour>
      <point x="590" y="121" type="line"/>
      <point x="485" y="226" type="line"/>
      <point x="590" y="332" type="line"/>
      <point x="696" y="226" type="line"/>
    </contour>
  </outline>
</glyph>
<glyph name="quotesingle" format="1">
  <advance width="220"/>
  <unicode hex="0027"/>
  <outline>
    <contour>
      <point x="145" y="389" type="line"/>
      <point x="145" y="649" type="line"/>
      <point x="275" y="649" type="line"/>
      <point x="275" y="509" type="line"/>
    </contour>
  </outline>
</glyph>
<glyph name="asterisk" format="1">
  <advance width="459"/>
  <unicode hex="002A"/>
  <outline>
    <contour>
      <point x="292" y="466" type="line"/>
      <point x="265" y="609" type="line"/>
      <point x="395" y="609" type="line"/>
      <point x="367" y="466" type="line"/>
      <point x="479" y="560" type="line"/>
      <point x="544" y="448" type="line"/>
      <point x="405" y="399" type="line"/>
      <point x="544" y="350" type="line"/>
      <point x="479" y="238" type="line"/>
      <point x="367" y="332" type="line"/>
      <point x="395" y="189" type="line"/>
      <point x="265" y="189" type="line"/>
      <point x="292" y="332" type="line"/>
      <point x="180" y="238" type="line"/>
      <point x="115" y="350" type="line"/>
      <point x="254" y="399" type="line"/>
      <point x="115" y="448" type="line"/>
      <point x="180" y="560" type="line"/>
    </contour>
  </outline>
</glyph>
<glyph name="plus" format="1">
  <advance width="560"/>
  <unicode hex="002B"/>
  <outline>
    <contour>
      <point x="185" y="339" type="line"/>
      <point x="185" y="449" type="line"/>
      <point x="310" y="449" type="line"/>
      <point x="310" y="569" type="line"/>
      <point x="450" y="569" type="line"/>
      <point x="450" y="449" type="line"/>
      <point x="575" y="449" type="line"/>
      <point x="575" y="339" type="line"/>
      <point x="450" y="339" type="line"/>
      <point x="450" y="219" type="line"/>
      <point x="310" y="219" type="line"/>
      <point x="310" y="339" type="line"/>
    </contour>
  </outline>
</glyph>
<glyph name="three" format="1">
  <advance width="464"/>
  <unicode hex="0033"/>
  <outline>
    <contour>
      <point x="257" y="358" type="line"/>
      <point x="257" y="453" type="line"/>
      <point x="307" y="453" type="line" smooth="yes"/>
      <point x="355" y="453"/>
      <point x="364" y="478"/>
      <point x="364" y="506" type="curve" smooth="yes"/>
      <point x="364" y="529"/>
      <point x="350" y="544"/>
      <point x="322" y="544" type="curve" smooth="yes"/>
      <point x="274" y="544"/>
      <point x="226" y="505"/>
      <point x="186" y="467" type="curve"/>
      <point x="146" y="577" type="line"/>
      <point x="196" y="634"/>
      <point x="256" y="664"/>
      <point x="323" y="664" type="curve" smooth="yes"/>
      <point x="430" y="664"/>
      <point x="515" y="619"/>
      <point x="515" y="522" type="curve" smooth="yes"/>
      <point x="515" y="467"/>
      <point x="489" y="434"/>
      <point x="444" y="416" type="curve"/>
      <point x="498" y="396"/>
      <point x="529" y="357"/>
      <point x="529" y="301" type="curve" smooth="yes"/>
      <point x="529" y="174"/>
      <point x="404" y="134"/>
      <point x="327" y="134" type="curve" smooth="yes"/>
      <point x="230" y="134"/>
      <point x="160" y="169"/>
      <point x="120" y="216" type="curve"/>
      <point x="160" y="331" type="line"/>
      <point x="200" y="293"/>
      <point x="259" y="259"/>
      <point x="307" y="259" type="curve" smooth="yes"/>
      <point x="355" y="259"/>
      <point x="384" y="268"/>
      <point x="384" y="309" type="curve" smooth="yes"/>
      <point x="384" y="347"/>
      <point x="355" y="358"/>
      <point x="307" y="358" type="curve" smooth="yes"/>
    </contour>
  </outline>
</glyph>
<glyph name="five" format="1">
  <advance width="449"/>
  <unicode hex="0035"/>
  <outline>
    <contour>
      <point x="165" y="388" type="line"/>
      <point x="195" y="649" type="line"/>
      <point x="495" y="649" type="line"/>
      <point x="485" y="534" type="line"/>
      <point x="302" y="534" type="line"/>
      <point x="296" y="483" type="line"/>
      <point x="411" y="482"/>
      <point x="514" y="427"/>
      <point x="514" y="301" type="curve" smooth="yes"/>
      <point x="514" y="174"/>
      <point x="399" y="134"/>
      <point x="312" y="134" type="curve" smooth="yes"/>
      <point x="235" y="134"/>
      <point x="165" y="169"/>
      <point x="125" y="206" type="curve"/>
      <point x="145" y="331" type="line"/>
      <point x="185" y="293"/>
      <point x="234" y="259"/>
      <point x="292" y="259" type="curve" smooth="yes"/>
      <point x="340" y="259"/>
      <point x="369" y="278"/>
      <point x="369" y="329" type="curve" smooth="yes"/>
      <point x="369" y="387"/>
      <point x="290" y="388"/>
      <point x="242" y="388" type="curve" smooth="yes"/>
    </contour>
  </outline>
</glyph>
<glyph name="colon" format="1">
  <advance width="291"/>
  <unicode hex="003A"/>
  <outline>
    <contour>
      <point x="245" y="406" type="line"/>
      <point x="140" y="511" type="line"/>
      <point x="245" y="617" type="line"/>
      <point x="351" y="511" type="line"/>
    </contour>
    <contour>
      <point x="245" y="121" type="line"/>
      <point x="140" y="226" type="line"/>
      <point x="245" y="332" type="line"/>
      <point x="351" y="226" type="line"/>
    </contour>
  </outline>
</glyph>
<glyph name="equal" format="1">
  <advance width="560"/>
  <unicode hex="003D"/>
  <outline>
    <contour>
      <point x="185" y="259" type="line"/>
      <point x="185" y="369" type="line"/>
      <point x="575" y="369" type="line"/>
      <point x="575" y="259" type="line"/>
    </contour>
    <contour>
      <point x="185" y="439" type="line"/>
      <point x="185" y="549" type="line"/>
      <point x="575" y="549" type="line"/>
      <point x="575" y="439" type="line"/>
    </contour>
  </outline>
</glyph>
<glyph name="F" format="1">
  <advance width="450"/>
  <unicode hex="0046"/>
  <outline>
    <contour>
      <point x="145" y="149" type="line"/>
      <point x="145" y="649" type="line"/>
      <point x="272" y="649"/>
      <point x="398" y="649"/>
      <point x="525" y="649" type="curve"/>
      <point x="525" y="529" type="line"/>
      <point x="285" y="529" type="line"/>
      <point x="285" y="439" type="line"/>
      <point x="495" y="439" type="line"/>
      <point x="495" y="314" type="line"/>
      <point x="285" y="314" type="line"/>
      <point x="285" y="149" type="line"/>
    </contour>
  </outline>
</glyph>
<glyph name="H" format="1">
  <advance width="560"/>
  <unicode hex="0048"/>
  <outline>
    <contour>
      <point x="145" y="149" type="line"/>
      <point x="145" y="649" type="line"/>
      <point x="285" y="649" type="line"/>
      <point x="285" y="459" type="line"/>
      <point x="475" y="459" type="line"/>
      <point x="475" y="649" type="line"/>
      <point x="615" y="649" type="line"/>
      <point x="615" y="149" type="line"/>
      <point x="475" y="149" type="line"/>
      <point x="475" y="339" type="line"/>
      <point x="285" y="339" type="line"/>
      <point x="285" y="149" type="line"/>
    </contour>
  </outline>
</glyph>
<glyph name="I" format="1">
  <advance width="230"/>
  <unicode hex="0049"/>
  <outline>
    <contour>
      <point x="145" y="149" type="line"/>
      <point x="145" y="649" type="line"/>
      <point x="285" y="649" type="line"/>
      <point x="285" y="149" type="line"/>
    </contour>
  </outline>
</glyph>
<glyph name="J" format="1">
  <advance width="319"/>
  <unicode hex="004A"/>
  <outline>
    <contour>
      <point x="234" y="159" type="curve" smooth="yes"/>
      <point x="234" y="649" type="line"/>
      <point x="374" y="649" type="line"/>
      <point x="374" y="119" type="line" smooth="yes"/>
      <point x="374" y="22"/>
      <point x="284" y="-33"/>
      <point x="207" y="-33" type="curve" smooth="yes"/>
      <point x="140" y="-33"/>
      <point x="100" y="-13"/>
      <point x="50" y="34" type="curve"/>
      <point x="100" y="139" type="line"/>
      <point x="140" y="101"/>
      <point x="169" y="87"/>
      <point x="187" y="87" type="curve" smooth="yes"/>
      <point x="215" y="87"/>
      <point x="234" y="101"/>
    </contour>
  </outline>
</glyph>
<glyph name="N" format="1">
  <advance width="590"/>
  <unicode hex="004E"/>
  <outline>
    <contour>
      <point x="145" y="149" type="line"/>
      <point x="145" y="649" type="line"/>
      <point x="315" y="649" type="line"/>
      <point x="505" y="332" type="line"/>
      <point x="505" y="649" type="line"/>
      <point x="645" y="649" type="line"/>
      <point x="645" y="149" type="line"/>
      <point x="475" y="149" type="line"/>
      <point x="285" y="466" type="line"/>
      <point x="285" y="149" type="line"/>
    </contour>
  </outline>
</glyph>
<glyph name="S" format="1">
  <advance width="449"/>
  <unicode hex="0053"/>
  <outline>
    <contour>
      <point x="379" y="299" type="curve" smooth="yes"/>
      <point x="379" y="359"/>
      <point x="146" y="362"/>
      <point x="146" y="512" type="curve" smooth="yes"/>
      <point x="146" y="609"/>
      <point x="231" y="664"/>
      <point x="338" y="664" type="curve" smooth="yes"/>
      <point x="405" y="664"/>
      <point x="465" y="634"/>
      <point x="515" y="577" type="curve"/>
      <point x="475" y="467" type="line"/>
      <point x="435" y="505"/>
      <point x="387" y="544"/>
      <point x="339" y="544" type="curve" smooth="yes"/>
      <point x="311" y="544"/>
      <point x="301" y="530"/>
      <point x="301" y="512" type="curve" smooth="yes"/>
      <point x="301" y="452"/>
      <point x="524" y="445"/>
      <point x="524" y="301" type="curve" smooth="yes"/>
      <point x="524" y="174"/>
      <point x="429" y="134"/>
      <point x="322" y="134" type="curve" smooth="yes"/>
      <point x="225" y="134"/>
      <point x="155" y="169"/>
      <point x="115" y="216" type="curve"/>
      <point x="155" y="331" type="line"/>
      <point x="195" y="293"/>
      <point x="264" y="259"/>
      <point x="312" y="259" type="curve" smooth="yes"/>
      <point x="350" y="259"/>
      <point x="379" y="268"/>
    </contour>
  </outline>
</glyph>
<glyph name="Z" format="1">
  <advance width="580"/>
  <unicode hex="005A"/>
  <outline>
    <contour>
      <point x="180" y="534" type="line"/>
      <point x="180" y="649" type="line"/>
      <point x="670" y="649" type="line"/>
      <point x="374" y="269" type="line"/>
      <point x="630" y="269" type="line"/>
      <point x="630" y="149" type="line"/>
      <point x="120" y="149" type="line"/>
      <point x="420" y="534" type="line"/>
    </contour>
  </outline>
</glyph>
<glyph name="b" format="1">
  <advance width="499"/>
  <unicode hex="0062"/>
  <outline>
    <contour>
      <point x="140" y="149" type="line"/>
      <point x="140" y="679" type="line"/>
      <point x="275" y="679" type="line"/>
      <point x="275" y="495" type="line"/>
      <point x="306" y="526"/>
      <point x="347" y="544"/>
      <point x="392" y="544" type="curve" smooth="yes"/>
      <point x="499" y="544"/>
      <point x="564" y="458"/>
      <point x="564" y="341" type="curve" smooth="yes"/>
      <point x="564" y="224"/>
      <point x="499" y="139"/>
      <point x="392" y="139" type="curve" smooth="yes"/>
      <point x="347" y="139"/>
      <point x="306" y="159"/>
      <point x="275" y="191" type="curve"/>
      <point x="275" y="149" type="line"/>
    </contour>
    <contour>
      <point x="275" y="282" type="line"/>
      <point x="294" y="258"/>
      <point x="323" y="244"/>
      <point x="352" y="244" type="curve" smooth="yes"/>
      <point x="400" y="244"/>
      <point x="429" y="283"/>
      <point x="429" y="341" type="curve" smooth="yes"/>
      <point x="429" y="399"/>
      <point x="400" y="439"/>
      <point x="352" y="439" type="curve" smooth="yes"/>
      <point x="323" y="439"/>
      <point x="294" y="424"/>
      <point x="275" y="400" type="curve"/>
    </contour>
  </outline>
</glyph>
<glyph name="l" format="1">
  <advance width="215"/>
  <unicode hex="006C"/>
  <outline>
    <contour>
      <point x="140" y="149" type="line"/>
      <point x="140" y="679" type="line"/>
      <point x="275" y="679" type="line"/>
      <point x="275" y="149" type="line"/>
    </contour>
  </outline>
</glyph>
<glyph name="n" format="1">
  <advance width="474"/>
  <unicode hex="006E"/>
  <outline>
    <contour>
      <point x="140" y="149" type="line"/>
      <point x="140" y="534" type="line"/>
      <point x="275" y="534" type="line"/>
      <point x="275" y="462" type="line"/>
      <point x="308" y="512"/>
      <point x="357" y="544"/>
      <point x="402" y="544" type="curve" smooth="yes"/>
      <point x="489" y="544"/>
      <point x="534" y="488"/>
      <point x="534" y="391" type="curve" smooth="yes"/>
      <point x="534" y="149" type="line"/>
      <point x="399" y="149" type="line"/>
      <point x="399" y="361" type="line" smooth="yes"/>
      <point x="399" y="419"/>
      <point x="380" y="439"/>
      <point x="352" y="439" type="curve" smooth="yes"/>
      <point x="323" y="439"/>
      <point x="294" y="417"/>
      <point x="275" y="389" type="curve"/>
      <point x="275" y="149" type="line"/>
    </contour>
  </outline>
</glyph>
<glyph name="v" format="1">
  <advance width="465"/>
  <unicode hex="0076"/>
  <outline>
    <contour>
      <point x="260" y="149" type="line"/>
      <point x="110" y="534" type="line"/>
      <point x="255" y="534" type="line"/>
      <point x="336" y="250" type="line"/>
      <point x="410" y="534" type="line"/>
      <point x="555" y="534" type="line"/>
      <point x="415" y="149" type="line"/>
    </contour>
  </outline>
</glyph>
<glyph name="y" format="1">
  <advance width="470"/>
  <unicode hex="0079"/>
  <outline>
    <contour>
      <point x="280" y="180" type="line"/>
      <point x="110" y="534" type="line"/>
      <point x="265" y="534" type="line"/>
      <point x="339" y="331" type="line"/>
      <point x="420" y="534" type="line"/>
      <point x="560" y="534" type="line"/>
      <point x="340" y="4" type="line"/>
      <point x="210" y="4" type="line"/>
    </contour>
  </outline>
</glyph>
